<svg width="1280" height="360" viewBox="0 0 1280 360" fill="none" xmlns="http://www.w3.org/2000/svg" role="img" aria-labelledby="title desc">
  <title id="title">RuralTail-MLR project banner</title>
  <desc id="desc">A stylized remote-sensing field grid with long-tailed label bars and TALC protocol text.</desc>
  <defs>
    <linearGradient id="sky" x1="0" y1="0" x2="1280" y2="360" gradientUnits="userSpaceOnUse">
      <stop offset="0" stop-color="#EAF6F3"/>
      <stop offset="0.45" stop-color="#F7FBF8"/>
      <stop offset="1" stop-color="#EEF4FF"/>
    </linearGradient>
    <linearGradient id="fieldA" x1="104" y1="226" x2="500" y2="330" gradientUnits="userSpaceOnUse">
      <stop offset="0" stop-color="#5C9E58"/>
      <stop offset="1" stop-color="#B8C86F"/>
    </linearGradient>
    <linearGradient id="fieldB" x1="114" y1="126" x2="580" y2="284" gradientUnits="userSpaceOnUse">
      <stop offset="0" stop-color="#2F7F6F"/>
      <stop offset="1" stop-color="#7FB069"/>
    </linearGradient>
    <linearGradient id="fieldC" x1="284" y1="92" x2="684" y2="236" gradientUnits="userSpaceOnUse">
      <stop offset="0" stop-color="#D7B56D"/>
      <stop offset="1" stop-color="#8CBF7B"/>
    </linearGradient>
    <filter id="softShadow" x="-20%" y="-20%" width="140%" height="140%">
      <feDropShadow dx="0" dy="18" stdDeviation="20" flood-color="#0F172A" flood-opacity="0.16"/>
    </filter>
  </defs>

  <rect width="1280" height="360" rx="32" fill="url(#sky)"/>
  <path d="M0 272C146 244 267 258 398 278C576 306 706 316 858 288C1017 259 1134 216 1280 244V360H0V272Z" fill="#DDEFE8"/>
  <path d="M0 306C178 272 343 300 510 318C688 337 826 328 998 293C1123 267 1204 269 1280 286V360H0V306Z" fill="#CFE3DD"/>

  <g filter="url(#softShadow)">
    <path d="M86 250L305 157L538 214L312 322L86 250Z" fill="url(#fieldB)"/>
    <path d="M312 322L538 214L719 263L482 340L312 322Z" fill="url(#fieldA)"/>
    <path d="M305 157L515 86L719 148L538 214L305 157Z" fill="url(#fieldC)"/>
    <path d="M86 250L312 322M305 157L538 214M515 86L719 148M538 214L482 340" stroke="#FFFFFF" stroke-opacity="0.72" stroke-width="5"/>
    <path d="M174 212L395 291M232 188L455 253M386 129L594 188M461 105L653 168" stroke="#FFFFFF" stroke-opacity="0.45" stroke-width="4"/>
    <circle cx="514" cy="86" r="8" fill="#0F766E"/>
    <circle cx="305" cy="157" r="7" fill="#14532D"/>
    <circle cx="718" cy="148" r="7" fill="#2563EB"/>
    <circle cx="538" cy="214" r="9" fill="#F97316"/>
  </g>

  <g opacity="0.92">
    <rect x="788" y="77" width="340" height="15" rx="7.5" fill="#14532D"/>
    <rect x="788" y="111" width="258" height="15" rx="7.5" fill="#1D4ED8"/>
    <rect x="788" y="145" width="188" height="15" rx="7.5" fill="#0F766E"/>
    <rect x="788" y="179" width="118" height="15" rx="7.5" fill="#F97316"/>
    <rect x="788" y="213" width="66" height="15" rx="7.5" fill="#BE123C"/>
    <path d="M764 260C823 228 871 230 921 246C976 264 1018 263 1062 232C1095 209 1127 197 1168 204" stroke="#0F766E" stroke-width="5" stroke-linecap="round"/>
    <path d="M764 285C829 269 875 274 929 287C981 300 1023 299 1070 282C1105 269 1134 266 1168 273" stroke="#2563EB" stroke-width="5" stroke-linecap="round" opacity="0.72"/>
  </g>

  <g font-family="Inter, Segoe UI, Arial, sans-serif">
    <text x="760" y="63" fill="#0F172A" font-size="24" font-weight="700">tail-aware multi-label recognition</text>
    <text x="760" y="329" fill="#334155" font-size="18" font-weight="600">BCE / Focal / ASL / TALC  -  H/M/T group evaluation  -  paper protocol</text>
    <text x="96" y="70" fill="#0F172A" font-size="42" font-weight="800">RuralTail-MLR</text>
    <text x="98" y="102" fill="#475569" font-size="18" font-weight="600">remote-sensing fields, long-tailed labels, reproducible protocol</text>
  </g>
</svg>
